<mxfile host="app.diagrams.net" modified="2021-06-09T08:47:57.960Z" agent="5.0 (X11)" etag="KRl7gP4hp5a1Sd8wOBzy" version="14.7.6" type="github">
  <diagram id="cMl599-4h-aWyt2zgb2W" name="Page-1">
    <mxGraphModel dx="1422" dy="852" grid="1" gridSize="10" guides="1" tooltips="1" connect="1" arrows="1" fold="1" page="1" pageScale="1" pageWidth="850" pageHeight="1100" math="0" shadow="0">
      <root>
        <mxCell id="0" />
        <mxCell id="1" parent="0" />
        <mxCell id="DOcaZ1V7EbzsRe1HPZxf-1" value="" style="rounded=1;whiteSpace=wrap;html=1;fillColor=none;" vertex="1" parent="1">
          <mxGeometry x="602" y="50" width="163" height="230" as="geometry" />
        </mxCell>
        <mxCell id="DOcaZ1V7EbzsRe1HPZxf-2" value="&lt;h1 style=&quot;text-align: left&quot;&gt;&lt;span style=&quot;font-size: 12px ; font-weight: 400&quot;&gt;WorkflowBDTopo_V2&lt;/span&gt;&lt;br&gt;&lt;/h1&gt;" style="text;html=1;strokeColor=none;fillColor=none;align=center;verticalAlign=middle;whiteSpace=wrap;rounded=0;" vertex="1" parent="1">
          <mxGeometry x="609" y="227" width="144" height="20" as="geometry" />
        </mxCell>
        <mxCell id="DOcaZ1V7EbzsRe1HPZxf-3" value="" style="rounded=0;whiteSpace=wrap;html=1;strokeColor=#000000;fillColor=none;dashed=1;dashPattern=1 2;strokeWidth=2;" vertex="1" parent="1">
          <mxGeometry x="621" y="223" width="120" height="40" as="geometry" />
        </mxCell>
        <mxCell id="DOcaZ1V7EbzsRe1HPZxf-4" value="" style="rounded=1;whiteSpace=wrap;html=1;" vertex="1" parent="1">
          <mxGeometry x="331" y="330" width="210" height="430" as="geometry" />
        </mxCell>
        <mxCell id="DOcaZ1V7EbzsRe1HPZxf-5" value="" style="rounded=1;whiteSpace=wrap;html=1;" vertex="1" parent="1">
          <mxGeometry x="120" y="53" width="150" height="230" as="geometry" />
        </mxCell>
        <mxCell id="DOcaZ1V7EbzsRe1HPZxf-6" value="&lt;h1&gt;&lt;span&gt;OSM&lt;/span&gt;&lt;/h1&gt;" style="text;html=1;strokeColor=none;fillColor=none;spacing=5;spacingTop=-20;whiteSpace=wrap;overflow=hidden;rounded=0;" vertex="1" parent="1">
          <mxGeometry x="125" y="60" width="190" height="40" as="geometry" />
        </mxCell>
        <mxCell id="DOcaZ1V7EbzsRe1HPZxf-7" value="&lt;h1&gt;BDTopo_V2&lt;/h1&gt;&lt;h1&gt;&lt;span style=&quot;font-size: 12px ; font-weight: normal&quot;&gt;&amp;nbsp;&lt;/span&gt;&lt;br&gt;&lt;/h1&gt;" style="text;html=1;strokeColor=none;fillColor=none;spacing=5;spacingTop=-20;whiteSpace=wrap;overflow=hidden;rounded=0;" vertex="1" parent="1">
          <mxGeometry x="610" y="60" width="190" height="40" as="geometry" />
        </mxCell>
        <mxCell id="DOcaZ1V7EbzsRe1HPZxf-8" style="edgeStyle=orthogonalEdgeStyle;rounded=0;orthogonalLoop=1;jettySize=auto;html=1;exitX=1;exitY=0.5;exitDx=0;exitDy=0;entryX=1;entryY=0.25;entryDx=0;entryDy=0;strokeWidth=1;dashed=1;endSize=6;" edge="1" parent="1" source="DOcaZ1V7EbzsRe1HPZxf-9" target="DOcaZ1V7EbzsRe1HPZxf-10">
          <mxGeometry relative="1" as="geometry">
            <Array as="points">
              <mxPoint x="290" y="123" />
              <mxPoint x="290" y="157" />
            </Array>
          </mxGeometry>
        </mxCell>
        <mxCell id="DOcaZ1V7EbzsRe1HPZxf-9" value="&lt;h1 style=&quot;text-align: left&quot;&gt;&lt;span style=&quot;font-size: 12px ; font-weight: 400&quot;&gt;InputDataLoading&lt;/span&gt;&lt;/h1&gt;" style="text;html=1;strokeColor=none;fillColor=none;align=center;verticalAlign=middle;whiteSpace=wrap;rounded=0;" vertex="1" parent="1">
          <mxGeometry x="133" y="113" width="115" height="20" as="geometry" />
        </mxCell>
        <mxCell id="DOcaZ1V7EbzsRe1HPZxf-10" value="&lt;h1 style=&quot;text-align: left&quot;&gt;&lt;span style=&quot;font-size: 12px ; font-weight: 400&quot;&gt;InputDataFormatting&lt;/span&gt;&lt;/h1&gt;" style="text;html=1;strokeColor=none;fillColor=none;align=center;verticalAlign=middle;whiteSpace=wrap;rounded=0;" vertex="1" parent="1">
          <mxGeometry x="130" y="152" width="122" height="20" as="geometry" />
        </mxCell>
        <mxCell id="DOcaZ1V7EbzsRe1HPZxf-11" style="edgeStyle=orthogonalEdgeStyle;rounded=0;orthogonalLoop=1;jettySize=auto;html=1;entryX=0;entryY=0.5;entryDx=0;entryDy=0;strokeWidth=1;dashed=1;" edge="1" parent="1" target="DOcaZ1V7EbzsRe1HPZxf-22">
          <mxGeometry relative="1" as="geometry">
            <mxPoint x="260" y="168" as="sourcePoint" />
            <Array as="points">
              <mxPoint x="290" y="168" />
              <mxPoint x="290" y="719" />
            </Array>
          </mxGeometry>
        </mxCell>
        <mxCell id="DOcaZ1V7EbzsRe1HPZxf-12" value="&lt;h1 style=&quot;text-align: left&quot;&gt;&lt;span style=&quot;font-size: 12px ; font-weight: 400&quot;&gt;WorkflowOSM&lt;/span&gt;&lt;br&gt;&lt;/h1&gt;" style="text;html=1;strokeColor=none;fillColor=none;align=center;verticalAlign=middle;whiteSpace=wrap;rounded=0;" vertex="1" parent="1">
          <mxGeometry x="138" y="227" width="104" height="20" as="geometry" />
        </mxCell>
        <mxCell id="DOcaZ1V7EbzsRe1HPZxf-13" value="&lt;span style=&quot;text-align: left&quot;&gt;GeoIndicatorsWorkflow&lt;/span&gt;" style="text;html=1;strokeColor=none;fillColor=none;align=center;verticalAlign=middle;whiteSpace=wrap;rounded=0;" vertex="1" parent="1">
          <mxGeometry x="369.5" y="708" width="131" height="20" as="geometry" />
        </mxCell>
        <mxCell id="DOcaZ1V7EbzsRe1HPZxf-14" value="" style="rounded=1;whiteSpace=wrap;html=1;fillColor=none;" vertex="1" parent="1">
          <mxGeometry x="341" y="390" width="184" height="290" as="geometry" />
        </mxCell>
        <mxCell id="DOcaZ1V7EbzsRe1HPZxf-15" value="&lt;h1&gt;GeoIndicators&lt;/h1&gt;&lt;p&gt;&lt;br&gt;&lt;/p&gt;&lt;p&gt;&lt;br&gt;&lt;/p&gt;&lt;p&gt;&lt;br&gt;&lt;/p&gt;" style="text;html=1;strokeColor=none;fillColor=none;spacing=5;spacingTop=-20;whiteSpace=wrap;overflow=hidden;rounded=0;" vertex="1" parent="1">
          <mxGeometry x="340" y="340" width="190" height="40" as="geometry" />
        </mxCell>
        <mxCell id="DOcaZ1V7EbzsRe1HPZxf-16" value="" style="rounded=0;whiteSpace=wrap;html=1;strokeColor=#000000;fillColor=none;dashed=1;" vertex="1" parent="1">
          <mxGeometry x="138" y="222" width="120" height="40" as="geometry" />
        </mxCell>
        <mxCell id="DOcaZ1V7EbzsRe1HPZxf-17" style="edgeStyle=orthogonalEdgeStyle;rounded=0;orthogonalLoop=1;jettySize=auto;html=1;exitX=0;exitY=0.75;exitDx=0;exitDy=0;entryX=0;entryY=0.5;entryDx=0;entryDy=0;strokeWidth=2;dashed=1;dashPattern=1 2;" edge="1" parent="1" source="DOcaZ1V7EbzsRe1HPZxf-18" target="DOcaZ1V7EbzsRe1HPZxf-19">
          <mxGeometry relative="1" as="geometry">
            <Array as="points">
              <mxPoint x="580" y="128" />
              <mxPoint x="580" y="162" />
            </Array>
          </mxGeometry>
        </mxCell>
        <mxCell id="DOcaZ1V7EbzsRe1HPZxf-18" value="&lt;h1 style=&quot;text-align: left&quot;&gt;&lt;span style=&quot;font-size: 12px ; font-weight: 400&quot;&gt;InputDataLoading&lt;/span&gt;&lt;/h1&gt;" style="text;html=1;strokeColor=none;fillColor=none;align=center;verticalAlign=middle;whiteSpace=wrap;rounded=0;" vertex="1" parent="1">
          <mxGeometry x="615.97" y="113" width="115" height="20" as="geometry" />
        </mxCell>
        <mxCell id="DOcaZ1V7EbzsRe1HPZxf-19" value="&lt;h1 style=&quot;text-align: left&quot;&gt;&lt;span style=&quot;font-size: 12px ; font-weight: 400&quot;&gt;InputDataFormatting&lt;/span&gt;&lt;/h1&gt;" style="text;html=1;strokeColor=none;fillColor=none;align=center;verticalAlign=middle;whiteSpace=wrap;rounded=0;" vertex="1" parent="1">
          <mxGeometry x="612.97" y="152" width="122" height="20" as="geometry" />
        </mxCell>
        <mxCell id="DOcaZ1V7EbzsRe1HPZxf-20" style="edgeStyle=orthogonalEdgeStyle;rounded=0;orthogonalLoop=1;jettySize=auto;html=1;exitX=0.009;exitY=0.861;exitDx=0;exitDy=0;exitPerimeter=0;entryX=1;entryY=0.5;entryDx=0;entryDy=0;dashed=1;strokeWidth=2;dashPattern=1 2;" edge="1" parent="1" source="DOcaZ1V7EbzsRe1HPZxf-19" target="DOcaZ1V7EbzsRe1HPZxf-22">
          <mxGeometry relative="1" as="geometry">
            <mxPoint x="511" y="170" as="sourcePoint" />
            <mxPoint x="499" y="714" as="targetPoint" />
            <Array as="points">
              <mxPoint x="580" y="169" />
              <mxPoint x="580" y="719" />
            </Array>
          </mxGeometry>
        </mxCell>
        <mxCell id="DOcaZ1V7EbzsRe1HPZxf-21" style="edgeStyle=none;rounded=0;orthogonalLoop=1;jettySize=auto;html=1;exitX=0.5;exitY=0;exitDx=0;exitDy=0;entryX=0.548;entryY=0.968;entryDx=0;entryDy=0;entryPerimeter=0;" edge="1" parent="1" source="DOcaZ1V7EbzsRe1HPZxf-22">
          <mxGeometry relative="1" as="geometry">
            <mxPoint x="436.17999999999984" y="680.0799999999999" as="targetPoint" />
          </mxGeometry>
        </mxCell>
        <mxCell id="DOcaZ1V7EbzsRe1HPZxf-22" value="" style="rounded=0;whiteSpace=wrap;html=1;strokeColor=#000000;fillColor=none;perimeterSpacing=0;strokeWidth=1;dashed=1;dashPattern=1 4;" vertex="1" parent="1">
          <mxGeometry x="370" y="699" width="132" height="40" as="geometry" />
        </mxCell>
        <mxCell id="DOcaZ1V7EbzsRe1HPZxf-23" style="edgeStyle=orthogonalEdgeStyle;rounded=0;orthogonalLoop=1;jettySize=auto;html=1;exitX=0;exitY=0.75;exitDx=0;exitDy=0;endArrow=classicThin;endFill=1;strokeWidth=1;dashed=1;dashPattern=1 4;" edge="1" parent="1">
          <mxGeometry relative="1" as="geometry">
            <Array as="points">
              <mxPoint x="350" y="414" />
              <mxPoint x="350" y="462" />
            </Array>
            <mxPoint x="369.5" y="414" as="sourcePoint" />
            <mxPoint x="370" y="462" as="targetPoint" />
          </mxGeometry>
        </mxCell>
        <mxCell id="DOcaZ1V7EbzsRe1HPZxf-24" value="&lt;h1 style=&quot;&quot;&gt;&lt;span style=&quot;font-size: 12px ; font-weight: 400&quot;&gt;SpatialUnits&lt;/span&gt;&lt;br&gt;&lt;/h1&gt;" style="text;html=1;strokeColor=none;fillColor=none;align=left;verticalAlign=middle;whiteSpace=wrap;rounded=0;" vertex="1" parent="1">
          <mxGeometry x="375.5" y="399" width="115" height="20" as="geometry" />
        </mxCell>
        <mxCell id="DOcaZ1V7EbzsRe1HPZxf-25" style="edgeStyle=none;rounded=0;orthogonalLoop=1;jettySize=auto;html=1;exitX=0;exitY=0.5;exitDx=0;exitDy=0;endArrow=none;endFill=0;strokeWidth=1;dashed=1;dashPattern=1 4;entryX=0.158;entryY=0.338;entryDx=0;entryDy=0;entryPerimeter=0;" edge="1" parent="1">
          <mxGeometry relative="1" as="geometry">
            <mxPoint x="369.5" y="442" as="sourcePoint" />
            <mxPoint x="370.0719999999999" y="485.02" as="targetPoint" />
          </mxGeometry>
        </mxCell>
        <mxCell id="DOcaZ1V7EbzsRe1HPZxf-26" value="&lt;h1&gt;&lt;span style=&quot;font-size: 12px ; font-weight: 400&quot;&gt;BuildingIndicators&lt;/span&gt;&lt;br&gt;&lt;/h1&gt;" style="text;html=1;strokeColor=none;fillColor=none;align=left;verticalAlign=middle;whiteSpace=wrap;rounded=0;" vertex="1" parent="1">
          <mxGeometry x="375.5" y="435" width="115" height="20" as="geometry" />
        </mxCell>
        <mxCell id="DOcaZ1V7EbzsRe1HPZxf-27" value="&lt;h1&gt;&lt;span style=&quot;font-size: 12px ; font-weight: 400&quot;&gt;&amp;nbsp; BlockIndicators&lt;/span&gt;&lt;br&gt;&lt;/h1&gt;" style="text;html=1;strokeColor=none;fillColor=none;align=left;verticalAlign=middle;whiteSpace=wrap;rounded=0;" vertex="1" parent="1">
          <mxGeometry x="370" y="500" width="120.5" height="20" as="geometry" />
        </mxCell>
        <mxCell id="DOcaZ1V7EbzsRe1HPZxf-28" style="edgeStyle=orthogonalEdgeStyle;rounded=0;orthogonalLoop=1;jettySize=auto;html=1;endArrow=classicThin;endFill=1;strokeWidth=1;dashed=1;dashPattern=1 4;" edge="1" parent="1">
          <mxGeometry relative="1" as="geometry">
            <mxPoint x="370" y="510" as="targetPoint" />
            <Array as="points">
              <mxPoint x="350" y="470" />
              <mxPoint x="350" y="510" />
            </Array>
            <mxPoint x="369" y="470" as="sourcePoint" />
          </mxGeometry>
        </mxCell>
        <mxCell id="DOcaZ1V7EbzsRe1HPZxf-29" value="&lt;h1&gt;&lt;span style=&quot;font-size: 12px ; font-weight: 400&quot;&gt;RoadIndicators&lt;/span&gt;&lt;br&gt;&lt;/h1&gt;" style="text;html=1;strokeColor=none;fillColor=none;align=left;verticalAlign=middle;whiteSpace=wrap;rounded=0;" vertex="1" parent="1">
          <mxGeometry x="375.5" y="459" width="115" height="20" as="geometry" />
        </mxCell>
        <mxCell id="DOcaZ1V7EbzsRe1HPZxf-30" value="&lt;h1&gt;&lt;span style=&quot;font-size: 12px ; font-weight: 400&quot;&gt;GenericIndicators&lt;/span&gt;&lt;br&gt;&lt;/h1&gt;" style="text;html=1;strokeColor=none;fillColor=none;align=left;verticalAlign=middle;whiteSpace=wrap;rounded=0;" vertex="1" parent="1">
          <mxGeometry x="375.5" y="538" width="115" height="20" as="geometry" />
        </mxCell>
        <mxCell id="DOcaZ1V7EbzsRe1HPZxf-31" value="&lt;h1&gt;&lt;span style=&quot;font-size: 12px ; font-weight: 400&quot;&gt;RSUIndicators&lt;/span&gt;&lt;br&gt;&lt;/h1&gt;" style="text;html=1;strokeColor=none;fillColor=none;align=left;verticalAlign=middle;whiteSpace=wrap;rounded=0;" vertex="1" parent="1">
          <mxGeometry x="375.5" y="560" width="115" height="20" as="geometry" />
        </mxCell>
        <mxCell id="DOcaZ1V7EbzsRe1HPZxf-32" value="&lt;h1&gt;&lt;span style=&quot;font-size: 12px ; font-weight: 400&quot;&gt;TypologyClassification&lt;/span&gt;&lt;br&gt;&lt;/h1&gt;" style="text;html=1;strokeColor=none;fillColor=none;align=left;verticalAlign=middle;whiteSpace=wrap;rounded=0;" vertex="1" parent="1">
          <mxGeometry x="375.5" y="602" width="115" height="20" as="geometry" />
        </mxCell>
        <mxCell id="DOcaZ1V7EbzsRe1HPZxf-33" value="&lt;h1&gt;&lt;span style=&quot;font-size: 12px ; font-weight: 400&quot;&gt;DataUtils&lt;/span&gt;&lt;br&gt;&lt;/h1&gt;" style="text;html=1;strokeColor=none;fillColor=none;align=left;verticalAlign=middle;whiteSpace=wrap;rounded=0;" vertex="1" parent="1">
          <mxGeometry x="375.5" y="646" width="115" height="20" as="geometry" />
        </mxCell>
        <mxCell id="DOcaZ1V7EbzsRe1HPZxf-34" style="edgeStyle=none;rounded=0;orthogonalLoop=1;jettySize=auto;html=1;endArrow=none;endFill=0;strokeWidth=1;dashed=1;dashPattern=1 4;entryX=0.163;entryY=0.679;entryDx=0;entryDy=0;entryPerimeter=0;" edge="1" parent="1" target="DOcaZ1V7EbzsRe1HPZxf-14">
          <mxGeometry relative="1" as="geometry">
            <mxPoint x="370" y="540" as="sourcePoint" />
            <mxPoint x="370" y="570" as="targetPoint" />
          </mxGeometry>
        </mxCell>
        <mxCell id="DOcaZ1V7EbzsRe1HPZxf-35" style="edgeStyle=orthogonalEdgeStyle;rounded=0;orthogonalLoop=1;jettySize=auto;html=1;exitX=0;exitY=0;exitDx=0;exitDy=0;endArrow=classicThin;endFill=1;entryX=0;entryY=0.75;entryDx=0;entryDy=0;strokeWidth=1;dashed=1;dashPattern=1 4;" edge="1" parent="1">
          <mxGeometry relative="1" as="geometry">
            <mxPoint x="369.5" y="617" as="targetPoint" />
            <mxPoint x="369.5" y="570" as="sourcePoint" />
            <Array as="points">
              <mxPoint x="350" y="570" />
              <mxPoint x="350" y="617" />
            </Array>
          </mxGeometry>
        </mxCell>
        <mxCell id="DOcaZ1V7EbzsRe1HPZxf-36" style="edgeStyle=orthogonalEdgeStyle;rounded=0;orthogonalLoop=1;jettySize=auto;html=1;endArrow=classicThin;endFill=1;strokeWidth=1;dashed=1;dashPattern=1 4;entryX=0;entryY=0.75;entryDx=0;entryDy=0;" edge="1" parent="1">
          <mxGeometry relative="1" as="geometry">
            <mxPoint x="369" y="556" as="targetPoint" />
            <Array as="points">
              <mxPoint x="349" y="516" />
              <mxPoint x="349" y="556" />
            </Array>
            <mxPoint x="368" y="516" as="sourcePoint" />
          </mxGeometry>
        </mxCell>
      </root>
    </mxGraphModel>
  </diagram>
</mxfile>
